<svg xmlns="http://www.w3.org/2000/svg" width="480" height="480" viewBox="0 0 480 480"><path d="M21 33L18 33L12 35L8 36L3 38L0 40L-3 42L-6 46L-8 51L-7 57L-6 61L-3 65L0 68L3 70L7 72L12 74L17 75L21 76L27 76L33 76L39 75L42 75L48 73L51 72L56 69L60 66L62 63L63 60L64 54L63 48L62 45L60 42L57 39L53 36L48 34L45 33L39 32L33 32L27 32L21 33 M489 36L486 37L481 39L477 42L475 45L473 48L472 54L474 60L475 63L478 66L482 69L486 72L489 73 M21 18L18 19L12 20L9 21L3 23L0 24L-6 27L-9 29 M-9 81L-6 83L-3 86L0 88L4 90L9 92L12 93L18 95L21 96L27 98L33 99L36 99L42 100L48 100L54 99L57 99L63 96L66 95L69 93L72 90L75 87L78 84L81 80L83 75L85 72L86 66L87 60L86 54L85 48L84 45L81 39L79 36L77 33L74 30L71 27L67 24L63 21L60 20L55 18L51 17L45 16L39 16L33 16L27 17L21 18 M489 21L486 22L481 24L477 26L474 27L470 30L466 33L463 36L461 39L459 42L457 48L456 54L457 60L459 65L461 69L463 72L465 75L468 78L471 81L475 84L479 87L483 89L486 91L491 93 M75 156L72 158L70 162L72 168L75 171L78 172L84 172L88 171L91 168L90 162L88 159L84 156L81 155L75 156 M354 189L351 190L348 193L345 197L344 201L345 206L347 210L351 213L354 215L359 216L363 216L366 215L371 213L374 210L377 207L378 204L379 198L378 194L375 191L372 189L366 187L360 187L354 189 M24 6L21 6L15 8L12 9L6 11L3 12L-3 15L-6 16L-10 18 M-11 96L-8 99L-5 102L-2 105L2 108L5 111L9 114L12 117L15 120L18 123L20 126L21 129L23 135L23 141L22 147L20 150L18 155L15 159L13 162L10 165L7 168L4 171L0 174L-3 176L-6 178L-9 180 M-9 193L-3 194L3 193L9 192L12 192L18 191L24 190L30 190L36 190L42 191L48 191L52 192L57 193L63 193L69 194L75 195L80 195L84 195L90 195L93 195L99 194L105 192L108 190L111 188L114 186L117 182L119 177L120 174L121 168L120 162L120 159L118 153L117 150L114 145L111 141L109 138L107 135L104 132L102 129L99 125L96 120L95 117L94 111L95 105L96 101L97 96L99 91L100 87L102 81L102 78L103 72L103 66L103 60L102 56L101 51L99 47L97 42L95 39L93 35L90 31L87 27L85 24L82 21L79 18L75 15L72 13L69 11L66 9L60 7L57 6L51 4L45 4L39 4L33 4L27 5 M492 9L486 11L483 12L477 15L474 16L470 18L466 21L462 24L459 26L456 29L453 32L451 36L449 39L447 45L446 48L446 54L447 60L448 63L450 69L451 72L453 76L456 81L458 84L461 87L463 90L466 93L469 96L472 99L475 102L478 105L482 108L485 111L489 114 M492 163L489 166L486 169L483 172L480 174L475 177L471 180L468 183L465 186L465 189L467 192L471 193L477 194L483 193L489 192L492 192 M354 171L351 172L345 174L342 175L338 177L334 180L330 183L328 186L326 189L324 192L322 198L322 204L323 210L324 213L327 218L330 222L333 225L336 228L339 230L342 232L346 234L351 236L355 237L360 238L366 238L370 237L375 236L378 234L384 231L387 229L390 227L393 224L396 221L399 219L402 216L405 213L408 210L411 207L414 203L417 199L418 195L417 189L415 186L411 183L408 181L405 179L400 177L396 175L392 174L387 173L381 171L378 171L372 170L366 170L360 170L354 171 M24 486L21 486L15 488L12 489L6 491 M69 491L66 489L60 487L57 486L51 484L45 484L39 484L33 484L27 485 M492 489L486 491 M30 -6L27 -5L21 -4L17 -3L12 -1L8 0L3 2L0 4L-5 6L-9 8 M-11 222L-6 221L0 219L3 218L9 216L12 215L18 213L21 212L27 211L30 210L36 209L42 208L47 207L51 207L57 206L63 207L69 207L75 207L78 207L84 207L90 207L96 207L102 207L105 207L111 206L117 204L120 202L123 201L126 198L129 194L132 189L133 186L135 180L136 177L137 171L137 165L137 159L136 153L135 147L134 144L132 138L131 135L129 130L127 126L126 123L124 117L123 114L121 108L121 102L121 96L121 90L121 84L121 78L120 72L120 69L118 63L117 58L116 54L114 50L112 45L110 42L108 38L105 34L103 30L100 27L98 24L96 21L93 18L90 15L87 12L84 9L80 6L76 3L72 1L69 -1L65 -3L60 -5L55 -6L51 -7L45 -7L39 -7L33 -6 M489 -0L486 1L481 3L477 5L474 6L469 9L465 11L462 13L459 16L456 18L452 21L449 24L447 27L444 30L441 36L440 39L438 45L438 48L437 54L438 59L439 63L441 69L442 72L444 77L446 81L447 84L450 89L452 93L454 96L456 99L459 104L461 108L463 111L465 116L466 120L468 126L468 132L466 138L464 141L462 144L459 147L456 150L452 153L447 156L444 157L439 159L435 160L429 161L424 162L420 162L414 162L408 162L405 162L399 161L393 161L387 160L381 160L375 159L369 159L363 159L357 160L351 161L345 162L342 163L336 165L333 166L329 168L324 171L321 173L318 176L315 179L312 182L309 186L308 189L306 192L304 198L303 204L304 210L306 216L308 219L310 222L312 225L315 228L318 231L322 234L326 237L330 240L333 242L336 244L339 246L345 249L348 250L354 252L357 253L363 254L369 254L375 253L378 252L384 250L387 248L391 246L396 243L399 241L402 239L406 237L411 234L414 232L417 231L423 228L426 227L432 226L438 225L441 225L447 224L453 224L459 223L465 223L469 222L474 221L480 219L483 218L489 216 M30 474L27 475L21 476L17 477L12 479L8 480L3 482L0 484L-5 486L-9 488 M87 492L84 489L80 486L76 483L72 481L69 479L65 477L60 475L55 474L51 473L45 473L39 473L33 474 M489 480L486 481L481 483L477 485L474 486L469 489L465 491 M12 -12L6 -9L3 -8L-1 -6L-6 -3L-9 -1 M-12 237L-6 235L-3 234L3 232L6 231L12 228L15 227L21 225L24 224L30 222L33 221L39 220L42 219L48 218L54 217L60 217L66 217L72 217L78 217L84 217L90 218L96 218L102 218L108 219L114 219L120 219L126 218L132 217L135 216L139 213L142 210L144 205L145 201L147 195L147 192L148 186L149 180L150 174L150 171L151 165L151 159L151 153L152 147L152 141L152 135L151 129L151 123L151 117L150 113L149 108L148 102L147 97L146 93L144 87L144 84L142 78L141 75L139 69L137 66L135 61L133 57L132 54L129 49L126 45L124 42L122 39L120 36L117 32L114 28L111 24L108 21L106 18L103 15L100 12L97 9L94 6L91 3L87 0L84 -3L81 -5L78 -7L75 -9L69 -12 M489 -10L486 -9L480 -6L477 -5L474 -3L469 0L465 2L462 4L459 6L455 9L451 12L448 15L445 18L442 21L439 24L437 27L435 30L432 36L431 39L430 45L430 51L430 57L431 63L432 67L434 72L435 76L437 81L438 84L441 90L442 93L444 98L445 102L447 107L448 111L449 117L448 123L447 128L445 132L443 135L440 138L437 141L432 144L429 145L424 147L420 148L414 149L408 150L405 150L399 151L393 151L387 151L381 151L375 151L369 151L363 151L357 151L351 152L345 153L342 153L336 155L332 156L327 158L324 159L318 162L315 163L312 165L308 168L304 171L301 174L298 177L295 180L292 183L290 186L287 189L285 193L282 198L281 201L279 207L280 213L282 219L284 222L287 225L291 228L294 230L297 233L300 235L304 237L308 240L312 243L315 245L318 247L322 249L326 252L330 254L333 256L336 258L342 261L345 262L349 264L354 266L360 267L363 267L369 268L375 267L378 267L384 265L388 264L393 262L396 261L401 258L405 256L408 255L413 252L417 250L420 249L426 247L429 246L435 244L441 243L444 243L450 241L456 240L459 239L465 238L468 237L474 235L477 234L483 232L486 231 M24 465L21 466L15 467L12 468L6 471L3 472L-1 474L-6 477L-9 479 M99 491L96 488L93 485L90 482L87 480L84 477L79 474L75 471L72 470L69 468L63 466L60 465L54 464L48 463L42 463L36 463L30 464L24 465 M489 470L486 471L480 474L477 475L474 477L469 480L465 482L462 484L459 486L455 489 M471 -12L467 -9L463 -6L459 -3L456 -1L453 1L450 4L447 6L444 9L440 12L437 15L434 18L432 21L429 25L426 30L425 33L423 39L422 42L422 48L422 54L423 60L424 63L425 69L426 72L428 78L429 82L431 87L432 91L434 96L435 102L435 105L436 111L435 117L434 120L432 124L429 128L426 131L423 133L420 135L414 138L411 139L405 140L399 141L396 141L390 142L384 142L378 143L372 143L366 143L360 143L354 144L349 144L345 144L339 145L333 146L330 147L324 148L319 150L315 151L310 153L306 155L303 156L297 159L294 161L291 162L287 165L282 168L279 171L276 173L273 176L270 178L267 181L264 184L261 188L258 191L255 195L252 198L250 201L247 204L245 207L242 210L239 213L236 216L232 219L228 221L225 222L219 224L213 224L207 224L201 223L195 222L192 222L186 220L183 219L177 216L174 214L171 211L168 207L166 204L165 200L164 195L163 189L163 183L164 177L164 171L165 165L165 162L167 156L168 151L169 147L171 143L173 138L175 135L177 132L180 129L183 126L189 123L192 122L198 121L204 120L210 120L216 120L219 120L225 119L231 117L234 115L237 112L240 108L241 105L243 99L243 96L244 90L244 84L245 78L245 72L246 68L247 63L249 58L251 54L252 51L255 46L258 42L261 39L264 36L267 33L270 30L273 27L276 25L279 22L282 20L285 18L289 15L292 12L295 9L298 6L301 3L303 -3L300 -7L294 -9L288 -8L282 -6L279 -5L275 -3L270 -1L267 1L262 3L258 5L255 7L251 9L246 11L243 13L239 15L234 18L231 20L228 22L224 24L220 27L217 30L214 33L211 36L209 39L206 42L204 45L201 48L198 51L195 54L192 57L187 60L183 62L177 63L171 62L168 60L163 57L159 54L156 52L153 49L150 47L147 44L144 41L141 38L138 35L135 33L132 30L129 27L126 24L123 21L120 18L117 15L114 12L111 9L108 6L105 3L101 0L98 -3L95 -6L91 -9 M-10 249L-6 247L-3 246L3 243L6 242L10 240L15 238L18 237L24 234L27 233L33 231L36 230L42 229L45 228L51 227L57 226L63 226L69 226L75 226L81 226L87 227L93 228L96 228L102 229L108 230L111 231L117 233L120 234L126 237L129 239L132 241L135 244L138 247L141 252L143 255L145 258L147 262L150 267L151 270L153 273L156 277L159 280L162 283L165 286L170 288L174 289L180 289L186 288L189 287L193 285L198 282L201 280L204 278L207 275L210 273L214 270L217 267L220 264L223 261L227 258L230 255L234 252L237 250L240 249L246 246L249 246L255 244L261 244L267 244L273 244L279 245L284 246L288 247L294 249L297 250L301 252L306 254L309 256L313 258L318 261L321 262L324 264L329 267L333 269L336 271L340 273L345 275L348 276L354 278L358 279L363 280L369 280L375 280L381 280L384 279L390 278L395 276L399 275L404 273L408 271L411 270L417 268L420 266L426 264L429 263L435 261L438 260L444 258L447 257L453 255L456 254L462 252L465 251L470 249L474 247L477 246L483 243L486 242L490 240 M489 459L486 460L482 462L477 465L474 467L471 468L467 471L463 474L459 477L456 479L453 481L450 484L447 486L444 489 M294 490L297 487L300 484L302 480L302 474L297 472L291 472L285 473L282 474L276 477L273 478L269 480L264 482L261 484L256 486L252 488L249 490 M111 489L108 486L105 483L102 481L99 478L96 475L93 473L90 470L87 468L83 465L78 462L75 460L72 459L66 457L63 456L57 454L51 453L48 453L42 453L36 453L32 453L27 454L21 455L17 456L12 458L8 459L3 461L0 463L-3 465L-8 468 M456 -11L453 -9L450 -6L446 -3L443 0L439 3L436 6L433 9L430 12L427 15L424 18L422 21L420 24L417 30L416 33L415 39L414 45L414 51L415 57L416 63L417 67L418 72L420 78L421 81L422 87L423 90L424 96L425 102L425 108L423 114L422 117L419 120L417 123L413 126L408 129L405 130L399 132L396 132L390 133L384 134L378 135L375 135L369 135L363 136L357 136L351 136L345 137L339 137L333 138L330 138L324 139L318 140L312 140L309 141L303 142L297 143L291 143L285 143L279 143L273 141L270 140L267 136L265 132L264 126L264 123L263 117L263 111L263 105L262 99L262 93L262 87L262 81L263 75L264 71L265 66L267 62L269 57L271 54L273 51L276 47L279 44L282 41L285 38L288 35L291 33L295 30L299 27L303 24L306 22L309 20L312 17L315 15L319 12L322 9L325 6L327 3L330 -2L332 -6 M249 -11L243 -9L240 -8L234 -6L231 -5L225 -4L221 -3L216 -2L210 -1L204 -0L201 0L195 2L192 3L187 6L183 8L180 10L177 12L172 15L168 17L165 18L159 19L153 19L148 18L144 17L140 15L135 12L132 11L129 9L125 6L121 3L117 0L114 -3L111 -5L108 -8L105 -11 M-11 261L-6 258L-3 257L0 255L6 252L9 250L12 249L18 246L21 245L25 243L30 241L33 240L39 238L44 237L48 236L54 235L60 234L66 234L72 234L78 235L84 235L90 236L94 237L99 238L104 240L108 242L111 243L116 246L120 249L123 251L126 255L129 258L131 261L133 264L135 267L138 272L140 276L142 279L144 282L147 287L149 291L152 294L154 297L157 300L160 303L164 306L168 308L171 309L177 309L180 309L186 307L189 306L195 303L198 302L201 300L206 297L210 294L213 292L216 291L220 288L224 285L228 283L231 281L234 279L239 276L243 274L246 273L252 270L255 269L260 267L264 266L270 264L273 264L279 264L285 264L288 264L294 265L300 267L303 268L308 270L312 272L315 273L321 276L324 278L327 279L332 282L336 284L339 285L345 287L348 288L354 290L358 291L363 292L369 292L375 292L381 292L387 291L390 291L396 289L401 288L405 287L411 285L414 284L420 282L423 281L429 279L432 278L437 276L441 274L445 273L450 271L453 269L458 267L462 265L465 263L469 261L474 258L477 257L480 255L486 252L489 250 M489 447L486 448L481 450L477 452L474 454L471 457L468 459L464 462L460 465L457 468L453 471L450 474L447 476L444 479L441 481L438 484L435 487L432 490 M321 490L324 487L327 483L329 480L330 477L332 471L333 465L332 459L330 455L327 452L324 450L318 447L315 447L309 447L306 447L300 448L294 450L291 451L285 453L282 454L278 456L273 458L270 460L265 462L261 464L258 465L252 468L249 469L243 471L240 472L234 474L231 475L225 476L221 477L216 478L210 479L204 480L201 480L195 482L192 483L187 486L183 488L180 490 M132 491L129 489L125 486L121 483L117 480L114 477L111 475L108 472L105 469L102 467L99 464L96 462L92 459L88 456L84 454L81 452L77 450L72 448L69 447L63 445L57 444L54 444L48 443L42 443L36 443L30 443L24 443L19 444L15 445L9 447L6 448L1 450L-3 452L-6 454L-9 457 M207 147L213 147L217 147L222 148L228 149L231 151L236 153L239 156L241 159L241 165L240 170L238 174L237 177L234 182L231 186L228 189L225 192L222 194L219 196L216 198L210 200L204 201L198 200L192 198L189 196L186 193L183 189L182 186L181 180L181 174L182 168L183 165L186 159L188 156L191 153L195 150L198 149L204 147L207 147 M144 -12L138 -11L132 -11 M441 -10L438 -7L435 -4L432 -1L429 1L426 4L423 7L420 10L417 14L414 17L411 21L410 24L408 28L406 33L406 39L405 45L406 51L407 57L408 62L409 66L410 72L411 75L413 81L414 87L414 90L415 96L414 102L414 105L411 111L409 114L406 117L402 120L399 122L396 123L390 125L384 126L381 126L375 127L369 128L363 128L357 128L351 129L345 129L339 129L336 129L330 129L324 129L318 129L312 129L309 129L303 128L297 126L294 125L291 123L287 120L285 117L282 113L280 108L279 105L277 99L276 93L276 90L276 84L276 78L276 75L278 69L279 66L282 60L284 57L286 54L288 51L291 48L294 45L297 42L301 39L305 36L309 33L312 31L315 29L318 27L322 24L327 21L330 19L333 16L336 14L339 11L342 7L345 3L347 0L348 -3L350 -9 M57 243L63 242L69 242L75 243L78 243L84 244L90 245L93 246L99 248L102 250L106 252L110 255L114 258L117 261L120 264L122 267L125 270L127 273L129 277L132 282L134 285L135 288L138 294L140 297L141 300L144 306L146 309L147 312L150 318L151 321L153 326L154 330L156 336L156 339L156 342L154 348L152 351L150 355L147 359L144 363L142 366L141 369L138 374L136 378L135 381L133 387L132 393L132 396L132 402L132 405L134 411L135 415L137 420L139 423L141 427L144 432L145 435L147 438L150 444L151 447L152 453L152 459L150 463L147 466L144 468L138 469L132 469L129 468L124 465L120 463L117 461L114 459L110 456L106 453L102 450L99 448L96 447L91 444L87 442L84 440L78 438L75 437L69 436L65 435L60 434L54 434L48 433L42 433L36 432L30 432L24 432L18 432L12 433L6 434L2 435L-3 437L-6 439L-10 441 M-11 273L-6 270L-3 268L0 266L3 264L8 261L12 259L15 257L19 255L24 252L27 251L32 249L36 248L41 246L45 245L51 244L56 243 M489 433L483 435L480 436L475 438L471 441L468 443L465 446L462 449L459 452L456 455L453 458L450 462L447 465L444 468L441 470L438 473L435 476L432 479L429 481L426 484L423 487L420 490 M339 491L342 487L345 483L347 480L348 477L350 471L350 465L351 459L350 453L349 447L348 443L346 438L344 435L340 432L336 430L333 429L327 428L321 428L315 429L312 429L306 431L301 432L297 433L292 435L288 437L284 438L279 440L276 442L270 444L267 445L263 447L258 449L255 450L249 452L246 453L240 455L234 455L228 455L222 454L217 453L213 451L210 449L207 446L204 441L202 438L201 433L200 429L199 423L199 417L198 411L198 408L197 402L196 396L195 393L193 387L192 383L190 378L189 375L186 369L185 366L183 360L182 357L181 351L181 345L183 340L186 336L189 333L192 330L195 328L198 325L201 323L204 321L208 318L213 315L216 313L219 311L222 309L228 306L231 304L234 303L239 300L243 298L246 296L251 294L255 292L258 290L264 288L267 287L272 285L276 284L282 283L288 282L294 283L300 284L305 285L309 286L314 288L318 290L321 291L327 294L330 295L336 297L339 298L345 300L348 301L354 302L359 303L363 303L369 304L375 304L381 304L387 304L392 303L396 302L402 301L408 300L411 299L417 298L420 297L426 295L429 294L435 292L438 290L443 288L447 286L450 285L455 282L459 280L462 278L465 276L469 273L474 270L477 268L480 266L483 264L488 261 M429 -11L426 -8L423 -6L420 -3L416 0L413 3L410 6L406 9L403 12L401 15L399 18L396 24L395 27L394 33L395 39L395 45L396 48L397 54L399 60L400 63L401 69L402 72L403 78L404 84L405 90L404 96L403 102L401 105L399 108L396 111L391 114L387 116L383 117L378 118L372 119L366 120L363 120L357 121L351 121L345 121L339 121L333 120L329 120L324 119L318 118L312 117L309 116L305 114L300 111L297 108L295 105L293 102L291 98L289 93L288 87L288 84L288 80L289 75L290 69L291 66L294 61L297 57L299 54L302 51L305 48L309 45L312 43L315 40L318 38L322 36L327 33L330 31L333 30L338 27L342 24L345 23L348 21L352 18L355 15L358 12L361 9L363 4L365 0L366 -6L366 -9 M51 252L57 251L63 251L69 251L75 251L80 252L84 253L90 255L93 256L97 258L102 261L105 263L108 266L111 269L114 272L117 276L119 279L121 282L123 285L126 291L127 294L129 298L131 303L132 306L134 312L135 318L136 321L136 327L136 333L135 338L134 342L132 348L131 351L129 355L127 360L126 363L123 368L121 372L120 375L118 381L117 384L115 390L114 393L112 399L111 405L110 408L109 414L107 417L105 421L102 423L96 425L90 425L84 425L78 425L72 424L66 424L60 424L54 423L48 423L45 423L39 423L33 422L27 422L21 421L15 420L12 420L6 419L0 419L-6 418 M-10 285L-6 282L-3 279L0 277L3 275L6 273L10 270L14 267L18 265L21 263L25 261L30 258L33 257L39 255L42 254L48 253L51 252 M489 420L483 419L477 418L471 418L465 419L461 420L457 423L455 426L453 430L451 435L450 438L447 444L446 447L444 450L441 455L438 459L435 462L433 465L430 468L427 471L423 474L420 477L417 480L414 482L411 485L408 487L405 490 M360 490L362 486L364 483L365 477L366 471L366 468L367 462L367 456L367 450L367 444L368 438L369 432L369 429L370 423L371 417L371 411L369 408L363 405L360 405L354 404L348 405L345 405L339 406L333 407L329 408L324 409L318 411L315 412L309 413L306 414L300 416L297 417L291 419L288 420L282 422L279 423L273 425L270 426L264 428L261 429L255 431L249 432L246 432L243 432L237 431L234 429L231 426L228 422L226 417L225 414L223 408L223 402L222 398L222 393L221 387L221 381L220 375L220 369L221 363L222 358L224 354L225 351L228 347L231 344L234 342L238 339L242 336L246 333L249 331L252 329L255 327L259 324L263 321L267 318L270 316L273 314L276 312L282 309L285 308L290 306L294 305L300 305L306 305L312 306L315 306L321 308L326 309L330 310L336 311L339 312L345 313L351 315L354 315L360 316L366 316L372 317L378 317L384 317L390 317L396 317L402 316L408 315L411 315L417 313L421 312L426 311L430 309L435 307L438 306L443 303L447 301L450 299L453 297L458 294L462 291L465 289L468 286L471 284L474 282L478 279L481 276L485 273L489 271 M405 -11L400 -9L396 -9L393 -9 M360 33L366 32L369 33L375 36L378 39L380 42L382 45L384 50L386 54L387 57L389 63L390 66L392 72L393 76L394 81L394 87L393 93L392 96L390 99L387 103L384 105L378 108L375 109L369 110L365 111L360 112L354 112L348 112L342 112L336 111L333 111L327 109L323 108L318 106L315 105L311 102L308 99L306 96L303 91L302 87L301 81L301 75L303 69L304 66L306 63L309 59L312 56L315 53L318 51L322 48L327 45L330 43L333 42L339 39L342 38L347 36L351 35L357 33L360 33 M48 261L54 260L60 259L66 259L72 260L78 261L81 261L87 264L90 265L94 267L98 270L102 273L105 276L108 279L110 282L112 285L114 288L117 294L118 297L120 302L121 306L123 312L123 315L124 321L124 327L123 333L123 336L121 342L120 345L118 351L116 354L114 359L112 363L111 366L108 372L107 375L105 378L102 384L101 387L99 390L96 395L93 399L91 402L87 405L84 407L81 409L75 411L72 411L66 412L60 413L54 413L48 413L42 413L36 412L30 412L26 411L21 410L15 408L12 407L6 405L3 403L0 402L-5 399L-9 396 M-12 300L-9 297L-5 294L-2 291L1 288L5 285L8 282L12 279L15 277L18 275L21 273L25 270L30 267L33 266L38 264L42 263L48 261 M489 406L486 405L480 402L477 400L474 398L471 396L467 393L464 390L461 387L458 384L455 381L452 378L450 375L447 372L444 369L441 366L438 363L435 360L432 357L428 354L425 351L422 348L421 342L423 339L426 336L429 333L433 330L436 327L440 324L443 321L447 318L450 316L453 313L456 311L459 308L462 305L465 303L468 300L471 297L475 294L478 291L481 288L485 285L488 282L492 279 M315 330L321 329L327 329L333 329L339 330L342 330L348 331L354 332L360 333L363 333L369 334L375 335L379 336L384 337L390 339L393 340L397 342L401 345L399 351L396 354L393 356L390 359L387 361L383 363L378 366L375 368L372 369L366 372L363 373L359 375L354 377L351 378L345 380L342 382L336 384L333 385L327 387L324 388L318 390L315 390L309 392L304 393L300 394L294 395L288 395L282 394L278 393L274 390L272 387L271 381L272 375L273 371L275 366L276 363L279 358L282 354L284 351L286 348L289 345L291 342L295 339L298 336L303 333L306 332L312 330L315 330 M402 431L408 429L414 430L420 432L423 435L425 438L426 442L426 445L425 450L423 454L420 458L417 461L414 464L411 466L408 468L402 471L399 471L394 471L390 468L388 465L387 462L386 456L387 450L388 447L390 442L392 438L395 435L399 432L402 431 M345 51L351 50L357 50L361 51L366 53L369 55L372 59L375 63L377 66L378 69L380 75L380 81L379 87L378 90L375 94L372 96L366 99L363 100L357 101L351 101L345 101L339 100L336 99L330 97L327 95L324 93L321 90L318 86L316 81L317 75L318 70L321 66L323 63L326 60L330 57L333 55L336 54L342 52L345 51 M48 270L54 269L60 268L66 268L72 269L77 270L81 271L85 273L90 276L93 278L96 281L99 284L102 287L104 291L106 294L108 298L110 303L111 306L112 312L113 318L113 324L113 330L111 336L111 339L109 345L108 348L105 354L104 357L102 360L99 366L97 369L96 372L93 377L90 381L88 384L86 387L83 390L80 393L75 396L72 398L69 399L63 401L60 402L54 403L48 403L42 403L36 402L33 402L27 401L22 399L18 398L15 396L9 393L6 391L3 389L0 386L-3 383L-6 380L-9 377 M-11 315L-9 312L-6 309L-3 306L0 302L3 299L6 296L9 293L12 290L15 288L18 285L22 282L27 279L30 277L33 275L38 273L42 272L47 270 M489 393L486 391L483 389L480 386L477 383L474 380L471 377L468 373L465 369L463 366L461 363L459 359L457 354L456 351L455 345L455 339L456 336L459 330L460 327L462 324L465 320L468 316L471 312L474 309L477 306L479 303L482 300L485 297L488 294L491 291 M51 279L57 278L63 278L69 279L72 279L78 281L81 283L85 285L88 288L91 291L94 294L96 297L99 303L100 306L102 312L102 315L103 321L102 327L102 330L101 336L99 342L98 345L96 349L94 354L92 357L90 361L87 366L85 369L83 372L81 375L78 378L75 381L72 384L67 387L63 389L60 390L54 392L48 393L42 393L36 392L30 391L27 390L21 387L18 385L15 384L12 381L8 378L5 375L3 372L0 368L-3 364L-5 360L-6 357L-8 351L-9 345L-8 339L-7 333L-6 330L-3 324L-1 321L1 318L3 315L6 311L9 307L12 304L15 301L18 298L21 295L24 292L27 290L30 288L35 285L39 283L42 281L48 279L51 279 M492 381L488 378L485 375L483 372L480 368L477 364L475 360L474 357L472 351L471 345L472 339L473 333L474 330L477 324L479 321L481 318L483 315L486 311L489 307 M48 291L54 289L60 289L66 290L70 291L75 293L78 295L81 298L84 301L87 305L89 309L90 313L91 318L91 324L91 330L90 334L89 339L87 344L85 348L84 351L81 356L79 360L76 363L74 366L72 369L68 372L65 375L60 378L57 379L51 381L48 381L42 382L37 381L33 380L28 378L24 376L21 374L18 371L15 368L12 364L9 360L8 357L6 351L5 348L5 342L6 336L7 333L9 327L11 324L12 321L15 317L18 313L21 309L24 306L27 303L30 300L33 298L36 296L40 294L45 292L48 291 M491 363L489 359L487 354L486 351L485 345L485 339L486 336L488 330L489 327 M48 305L54 304L60 304L66 306L69 308L72 311L75 315L76 318L77 324L77 330L76 336L75 340L73 345L72 348L69 352L66 356L63 360L60 362L57 364L53 366L48 368L42 368L36 367L33 365L30 363L26 360L24 357L21 351L20 348L20 342L20 336L21 333L24 327L25 324L27 321L30 318L33 314L36 312L40 309L45 306L48 305" fill="none" stroke="#e8f0e4" stroke-opacity="0.075" stroke-width="1.4" stroke-linejoin="round"/></svg>